M48
; DRILL file {KiCad (5.1.12)-1} date 12/22/21 14:44:38
; FORMAT={-:-/ absolute / inch / decimal}
; #@! TF.CreationDate,2021-12-22T14:44:38+01:00
; #@! TF.GenerationSoftware,Kicad,Pcbnew,(5.1.12)-1
; #@! TF.FileFunction,Plated,1,2,PTH
FMAT,2
INCH
T1C0.0157
T2C0.0177
T3C0.0394
%
G90
G05
T1
X5.24Y-3.1
X5.267Y-3.13
X5.3Y-3.5
X5.4Y-2.71
X5.4Y-2.82
X5.4Y-2.88
X5.4Y-2.94
X5.41Y-3.4
X5.48Y-3.02
X5.57Y-3.12
X5.59Y-3.36
X5.75Y-3.44
X5.79Y-3.09
X5.88Y-3.34
X5.91Y-3.3106
X6.03Y-3.17
X6.095Y-3.014
X6.1611Y-3.12
X6.18Y-3.31
X6.2919Y-3.0481
X6.45Y-2.862
T3
X5.08Y-2.69
X5.08Y-2.79
X5.08Y-2.95
X5.08Y-3.05
X5.23Y-3.27
X5.23Y-3.37
X6.2Y-2.71
X6.3Y-2.71
X6.4Y-2.71
X6.5Y-2.71
T2
G00X5.7993Y-3.553
M15
G01X5.7993Y-3.5215
M16
G05
G00X6.0807Y-3.5215
M15
G01X6.0807Y-3.553
M16
G05
T0
M30
