%TF.GenerationSoftware,KiCad,Pcbnew,(5.1.12)-1*%
%TF.CreationDate,2021-12-22T14:47:12+01:00*%
%TF.ProjectId,speaker,73706561-6b65-4722-9e6b-696361645f70,rev?*%
%TF.SameCoordinates,Original*%
%TF.FileFunction,Soldermask,Top*%
%TF.FilePolarity,Negative*%
%FSLAX46Y46*%
G04 Gerber Fmt 4.6, Leading zero omitted, Abs format (unit mm)*
G04 Created by KiCad (PCBNEW (5.1.12)-1) date 2021-12-22 14:47:12*
%MOMM*%
%LPD*%
G01*
G04 APERTURE LIST*
%ADD10R,1.000000X1.500000*%
%ADD11R,1.400000X0.300000*%
%ADD12R,0.700000X0.700000*%
%ADD13R,1.500000X0.900000*%
%ADD14O,1.700000X1.700000*%
%ADD15R,1.700000X1.700000*%
%ADD16R,1.150000X1.450000*%
%ADD17O,1.050000X1.900000*%
%ADD18R,1.750000X1.900000*%
%ADD19R,0.400000X1.400000*%
%ADD20R,1.250000X1.250000*%
%ADD21R,0.300000X0.850000*%
%ADD22R,0.850000X0.300000*%
%ADD23R,0.550000X1.300000*%
%ADD24R,0.800000X1.475000*%
%ADD25R,1.850000X3.125000*%
G04 APERTURE END LIST*
D10*
%TO.C,D1*%
X165582800Y-76897400D03*
X168782800Y-76897400D03*
X165582800Y-71997400D03*
X168782800Y-71997400D03*
%TD*%
D11*
%TO.C,IC1*%
X144186000Y-84598000D03*
X144186000Y-85098000D03*
X144186000Y-85598000D03*
X144186000Y-86098000D03*
X144186000Y-86598000D03*
X139786000Y-86598000D03*
X139786000Y-86098000D03*
X139786000Y-85598000D03*
X139786000Y-85098000D03*
X139786000Y-84598000D03*
%TD*%
%TO.C,J1*%
G36*
G01*
X161998400Y-84123400D02*
X166998400Y-84123400D01*
G75*
G02*
X167248400Y-84373400I0J-250000D01*
G01*
X167248400Y-84873400D01*
G75*
G02*
X166998400Y-85123400I-250000J0D01*
G01*
X161998400Y-85123400D01*
G75*
G02*
X161748400Y-84873400I0J250000D01*
G01*
X161748400Y-84373400D01*
G75*
G02*
X161998400Y-84123400I250000J0D01*
G01*
G37*
G36*
G01*
X161998400Y-86123400D02*
X166998400Y-86123400D01*
G75*
G02*
X167248400Y-86373400I0J-250000D01*
G01*
X167248400Y-86873400D01*
G75*
G02*
X166998400Y-87123400I-250000J0D01*
G01*
X161998400Y-87123400D01*
G75*
G02*
X161748400Y-86873400I0J250000D01*
G01*
X161748400Y-86373400D01*
G75*
G02*
X161998400Y-86123400I250000J0D01*
G01*
G37*
G36*
G01*
X165498400Y-81423400D02*
X167998400Y-81423400D01*
G75*
G02*
X168248400Y-81673400I0J-250000D01*
G01*
X168248400Y-82773400D01*
G75*
G02*
X167998400Y-83023400I-250000J0D01*
G01*
X165498400Y-83023400D01*
G75*
G02*
X165248400Y-82773400I0J250000D01*
G01*
X165248400Y-81673400D01*
G75*
G02*
X165498400Y-81423400I250000J0D01*
G01*
G37*
G36*
G01*
X165498400Y-88223400D02*
X167998400Y-88223400D01*
G75*
G02*
X168248400Y-88473400I0J-250000D01*
G01*
X168248400Y-89573400D01*
G75*
G02*
X167998400Y-89823400I-250000J0D01*
G01*
X165498400Y-89823400D01*
G75*
G02*
X165248400Y-89573400I0J250000D01*
G01*
X165248400Y-88473400D01*
G75*
G02*
X165498400Y-88223400I250000J0D01*
G01*
G37*
%TD*%
D12*
%TO.C,U1*%
X144285000Y-72225000D03*
X144285000Y-73325000D03*
X144285000Y-74425000D03*
X145335000Y-74425000D03*
X146485000Y-74425000D03*
X146485000Y-73325000D03*
X146485000Y-72225000D03*
X145335000Y-72225000D03*
X145335000Y-73325000D03*
D13*
X153175000Y-67125000D03*
X153175000Y-68625000D03*
X153175000Y-70125000D03*
X153175000Y-71625000D03*
X153175000Y-73125000D03*
X153175000Y-74625000D03*
X153175000Y-76125000D03*
X153175000Y-77625000D03*
X153175000Y-79125000D03*
X135675000Y-67125000D03*
X135675000Y-68625000D03*
X135675000Y-70125000D03*
X135675000Y-71625000D03*
X135675000Y-73125000D03*
X135675000Y-74625000D03*
X135675000Y-76125000D03*
X135675000Y-77625000D03*
X135675000Y-79125000D03*
%TD*%
D14*
%TO.C,J5*%
X129032000Y-70866000D03*
D15*
X129032000Y-68326000D03*
%TD*%
D14*
%TO.C,J6*%
X132842000Y-85598000D03*
D15*
X132842000Y-83058000D03*
%TD*%
%TO.C,R3*%
G36*
G01*
X133013000Y-67331000D02*
X133013000Y-66781000D01*
G75*
G02*
X133213000Y-66581000I200000J0D01*
G01*
X133613000Y-66581000D01*
G75*
G02*
X133813000Y-66781000I0J-200000D01*
G01*
X133813000Y-67331000D01*
G75*
G02*
X133613000Y-67531000I-200000J0D01*
G01*
X133213000Y-67531000D01*
G75*
G02*
X133013000Y-67331000I0J200000D01*
G01*
G37*
G36*
G01*
X131363000Y-67331000D02*
X131363000Y-66781000D01*
G75*
G02*
X131563000Y-66581000I200000J0D01*
G01*
X131963000Y-66581000D01*
G75*
G02*
X132163000Y-66781000I0J-200000D01*
G01*
X132163000Y-67331000D01*
G75*
G02*
X131963000Y-67531000I-200000J0D01*
G01*
X131563000Y-67531000D01*
G75*
G02*
X131363000Y-67331000I0J200000D01*
G01*
G37*
%TD*%
%TO.C,R2*%
G36*
G01*
X140824000Y-89683000D02*
X140824000Y-89133000D01*
G75*
G02*
X141024000Y-88933000I200000J0D01*
G01*
X141424000Y-88933000D01*
G75*
G02*
X141624000Y-89133000I0J-200000D01*
G01*
X141624000Y-89683000D01*
G75*
G02*
X141424000Y-89883000I-200000J0D01*
G01*
X141024000Y-89883000D01*
G75*
G02*
X140824000Y-89683000I0J200000D01*
G01*
G37*
G36*
G01*
X139174000Y-89683000D02*
X139174000Y-89133000D01*
G75*
G02*
X139374000Y-88933000I200000J0D01*
G01*
X139774000Y-88933000D01*
G75*
G02*
X139974000Y-89133000I0J-200000D01*
G01*
X139974000Y-89683000D01*
G75*
G02*
X139774000Y-89883000I-200000J0D01*
G01*
X139374000Y-89883000D01*
G75*
G02*
X139174000Y-89683000I0J200000D01*
G01*
G37*
%TD*%
%TO.C,R1*%
G36*
G01*
X144443000Y-89683000D02*
X144443000Y-89133000D01*
G75*
G02*
X144643000Y-88933000I200000J0D01*
G01*
X145043000Y-88933000D01*
G75*
G02*
X145243000Y-89133000I0J-200000D01*
G01*
X145243000Y-89683000D01*
G75*
G02*
X145043000Y-89883000I-200000J0D01*
G01*
X144643000Y-89883000D01*
G75*
G02*
X144443000Y-89683000I0J200000D01*
G01*
G37*
G36*
G01*
X142793000Y-89683000D02*
X142793000Y-89133000D01*
G75*
G02*
X142993000Y-88933000I200000J0D01*
G01*
X143393000Y-88933000D01*
G75*
G02*
X143593000Y-89133000I0J-200000D01*
G01*
X143593000Y-89683000D01*
G75*
G02*
X143393000Y-89883000I-200000J0D01*
G01*
X142993000Y-89883000D01*
G75*
G02*
X142793000Y-89683000I0J200000D01*
G01*
G37*
%TD*%
D14*
%TO.C,J4*%
X129032000Y-77470000D03*
D15*
X129032000Y-74930000D03*
%TD*%
D16*
%TO.C,J3*%
X148556000Y-87616000D03*
X153196000Y-87616000D03*
D17*
X154451000Y-89846000D03*
X147301000Y-89846000D03*
D18*
X149751000Y-89846000D03*
D19*
X150876000Y-87196000D03*
X151526000Y-87196000D03*
X152176000Y-87196000D03*
X149576000Y-87196000D03*
X150226000Y-87196000D03*
D18*
X152001000Y-89846000D03*
%TD*%
D14*
%TO.C,J2*%
X165100000Y-68834000D03*
X162560000Y-68834000D03*
X160020000Y-68834000D03*
D15*
X157480000Y-68834000D03*
%TD*%
D20*
%TO.C,IC3*%
X127762000Y-85090000D03*
D21*
X127012000Y-83640000D03*
X127512000Y-83640000D03*
X128012000Y-83640000D03*
X128512000Y-83640000D03*
D22*
X129212000Y-84340000D03*
X129212000Y-84840000D03*
X129212000Y-85340000D03*
X129212000Y-85840000D03*
D21*
X128512000Y-86540000D03*
X128012000Y-86540000D03*
X127512000Y-86540000D03*
X127012000Y-86540000D03*
D22*
X126312000Y-85840000D03*
X126312000Y-85340000D03*
X126312000Y-84840000D03*
X126312000Y-84340000D03*
%TD*%
D23*
%TO.C,IC2*%
X157504000Y-75990000D03*
D24*
X159004000Y-75902000D03*
D23*
X160504000Y-75990000D03*
D25*
X159004000Y-73602000D03*
%TD*%
%TO.C,C6*%
G36*
G01*
X131937999Y-71258000D02*
X133238001Y-71258000D01*
G75*
G02*
X133488000Y-71507999I0J-249999D01*
G01*
X133488000Y-72158001D01*
G75*
G02*
X133238001Y-72408000I-249999J0D01*
G01*
X131937999Y-72408000D01*
G75*
G02*
X131688000Y-72158001I0J249999D01*
G01*
X131688000Y-71507999D01*
G75*
G02*
X131937999Y-71258000I249999J0D01*
G01*
G37*
G36*
G01*
X131937999Y-68308000D02*
X133238001Y-68308000D01*
G75*
G02*
X133488000Y-68557999I0J-249999D01*
G01*
X133488000Y-69208001D01*
G75*
G02*
X133238001Y-69458000I-249999J0D01*
G01*
X131937999Y-69458000D01*
G75*
G02*
X131688000Y-69208001I0J249999D01*
G01*
X131688000Y-68557999D01*
G75*
G02*
X131937999Y-68308000I249999J0D01*
G01*
G37*
%TD*%
%TO.C,C5*%
G36*
G01*
X131937999Y-76338000D02*
X133238001Y-76338000D01*
G75*
G02*
X133488000Y-76587999I0J-249999D01*
G01*
X133488000Y-77238001D01*
G75*
G02*
X133238001Y-77488000I-249999J0D01*
G01*
X131937999Y-77488000D01*
G75*
G02*
X131688000Y-77238001I0J249999D01*
G01*
X131688000Y-76587999D01*
G75*
G02*
X131937999Y-76338000I249999J0D01*
G01*
G37*
G36*
G01*
X131937999Y-73388000D02*
X133238001Y-73388000D01*
G75*
G02*
X133488000Y-73637999I0J-249999D01*
G01*
X133488000Y-74288001D01*
G75*
G02*
X133238001Y-74538000I-249999J0D01*
G01*
X131937999Y-74538000D01*
G75*
G02*
X131688000Y-74288001I0J249999D01*
G01*
X131688000Y-73637999D01*
G75*
G02*
X131937999Y-73388000I249999J0D01*
G01*
G37*
%TD*%
%TO.C,C4*%
G36*
G01*
X131049600Y-89550001D02*
X131049600Y-88249999D01*
G75*
G02*
X131299599Y-88000000I249999J0D01*
G01*
X131949601Y-88000000D01*
G75*
G02*
X132199600Y-88249999I0J-249999D01*
G01*
X132199600Y-89550001D01*
G75*
G02*
X131949601Y-89800000I-249999J0D01*
G01*
X131299599Y-89800000D01*
G75*
G02*
X131049600Y-89550001I0J249999D01*
G01*
G37*
G36*
G01*
X128099600Y-89550001D02*
X128099600Y-88249999D01*
G75*
G02*
X128349599Y-88000000I249999J0D01*
G01*
X128999601Y-88000000D01*
G75*
G02*
X129249600Y-88249999I0J-249999D01*
G01*
X129249600Y-89550001D01*
G75*
G02*
X128999601Y-89800000I-249999J0D01*
G01*
X128349599Y-89800000D01*
G75*
G02*
X128099600Y-89550001I0J249999D01*
G01*
G37*
%TD*%
%TO.C,C3*%
G36*
G01*
X124576000Y-88249999D02*
X124576000Y-89550001D01*
G75*
G02*
X124326001Y-89800000I-249999J0D01*
G01*
X123675999Y-89800000D01*
G75*
G02*
X123426000Y-89550001I0J249999D01*
G01*
X123426000Y-88249999D01*
G75*
G02*
X123675999Y-88000000I249999J0D01*
G01*
X124326001Y-88000000D01*
G75*
G02*
X124576000Y-88249999I0J-249999D01*
G01*
G37*
G36*
G01*
X127526000Y-88249999D02*
X127526000Y-89550001D01*
G75*
G02*
X127276001Y-89800000I-249999J0D01*
G01*
X126625999Y-89800000D01*
G75*
G02*
X126376000Y-89550001I0J249999D01*
G01*
X126376000Y-88249999D01*
G75*
G02*
X126625999Y-88000000I249999J0D01*
G01*
X127276001Y-88000000D01*
G75*
G02*
X127526000Y-88249999I0J-249999D01*
G01*
G37*
%TD*%
%TO.C,C2*%
G36*
G01*
X162342400Y-79923401D02*
X162342400Y-78623399D01*
G75*
G02*
X162592399Y-78373400I249999J0D01*
G01*
X163242401Y-78373400D01*
G75*
G02*
X163492400Y-78623399I0J-249999D01*
G01*
X163492400Y-79923401D01*
G75*
G02*
X163242401Y-80173400I-249999J0D01*
G01*
X162592399Y-80173400D01*
G75*
G02*
X162342400Y-79923401I0J249999D01*
G01*
G37*
G36*
G01*
X159392400Y-79923401D02*
X159392400Y-78623399D01*
G75*
G02*
X159642399Y-78373400I249999J0D01*
G01*
X160292401Y-78373400D01*
G75*
G02*
X160542400Y-78623399I0J-249999D01*
G01*
X160542400Y-79923401D01*
G75*
G02*
X160292401Y-80173400I-249999J0D01*
G01*
X159642399Y-80173400D01*
G75*
G02*
X159392400Y-79923401I0J249999D01*
G01*
G37*
%TD*%
%TO.C,C1*%
G36*
G01*
X155818000Y-78597999D02*
X155818000Y-79898001D01*
G75*
G02*
X155568001Y-80148000I-249999J0D01*
G01*
X154917999Y-80148000D01*
G75*
G02*
X154668000Y-79898001I0J249999D01*
G01*
X154668000Y-78597999D01*
G75*
G02*
X154917999Y-78348000I249999J0D01*
G01*
X155568001Y-78348000D01*
G75*
G02*
X155818000Y-78597999I0J-249999D01*
G01*
G37*
G36*
G01*
X158768000Y-78597999D02*
X158768000Y-79898001D01*
G75*
G02*
X158518001Y-80148000I-249999J0D01*
G01*
X157867999Y-80148000D01*
G75*
G02*
X157618000Y-79898001I0J249999D01*
G01*
X157618000Y-78597999D01*
G75*
G02*
X157867999Y-78348000I249999J0D01*
G01*
X158518001Y-78348000D01*
G75*
G02*
X158768000Y-78597999I0J-249999D01*
G01*
G37*
%TD*%
M02*
