%TF.GenerationSoftware,KiCad,Pcbnew,(5.1.12)-1*%
%TF.CreationDate,2021-12-22T14:47:12+01:00*%
%TF.ProjectId,speaker,73706561-6b65-4722-9e6b-696361645f70,rev?*%
%TF.SameCoordinates,Original*%
%TF.FileFunction,Copper,L2,Bot*%
%TF.FilePolarity,Positive*%
%FSLAX46Y46*%
G04 Gerber Fmt 4.6, Leading zero omitted, Abs format (unit mm)*
G04 Created by KiCad (PCBNEW (5.1.12)-1) date 2021-12-22 14:47:12*
%MOMM*%
%LPD*%
G01*
G04 APERTURE LIST*
%TA.AperFunction,ComponentPad*%
%ADD10O,1.700000X1.700000*%
%TD*%
%TA.AperFunction,ComponentPad*%
%ADD11R,1.700000X1.700000*%
%TD*%
%TA.AperFunction,ComponentPad*%
%ADD12O,1.050000X1.900000*%
%TD*%
%TA.AperFunction,ViaPad*%
%ADD13C,0.800000*%
%TD*%
%TA.AperFunction,Conductor*%
%ADD14C,0.250000*%
%TD*%
%TA.AperFunction,Conductor*%
%ADD15C,0.254000*%
%TD*%
%TA.AperFunction,Conductor*%
%ADD16C,0.100000*%
%TD*%
G04 APERTURE END LIST*
D10*
%TO.P,J5,2*%
%TO.N,GND*%
X129032000Y-70866000D03*
D11*
%TO.P,J5,1*%
%TO.N,/comm/EN*%
X129032000Y-68326000D03*
%TD*%
D10*
%TO.P,J6,2*%
%TO.N,/audio/SPK+*%
X132842000Y-85598000D03*
D11*
%TO.P,J6,1*%
%TO.N,/audio/SPK-*%
X132842000Y-83058000D03*
%TD*%
D10*
%TO.P,J4,2*%
%TO.N,GND*%
X129032000Y-77470000D03*
D11*
%TO.P,J4,1*%
%TO.N,/comm/BOOT*%
X129032000Y-74930000D03*
%TD*%
D12*
%TO.P,J3,6*%
%TO.N,GND*%
X154451000Y-89846000D03*
X147301000Y-89846000D03*
%TD*%
D10*
%TO.P,J2,4*%
%TO.N,/comm/TDO*%
X165100000Y-68834000D03*
%TO.P,J2,3*%
%TO.N,/comm/TCK*%
X162560000Y-68834000D03*
%TO.P,J2,2*%
%TO.N,/comm/TDI*%
X160020000Y-68834000D03*
D11*
%TO.P,J2,1*%
%TO.N,/comm/TMS*%
X157480000Y-68834000D03*
%TD*%
D13*
%TO.N,GND*%
X141478000Y-79248000D03*
X134620000Y-88900000D03*
%TO.N,+3V3*%
X139192000Y-76708000D03*
X156491598Y-79248000D03*
%TO.N,/power/VBAT*%
X150114000Y-84090000D03*
X159815000Y-77421000D03*
X156972000Y-84074000D03*
%TO.N,/comm/PG*%
X137414000Y-86360000D03*
X146050000Y-87376000D03*
%TO.N,VBUS*%
X149352000Y-84836000D03*
X141986000Y-85344000D03*
%TO.N,/audio/BCLK*%
X133781800Y-79502000D03*
X147066000Y-78486000D03*
%TO.N,/audio/DATA*%
X133096000Y-78740000D03*
X153162000Y-80518000D03*
%TO.N,/comm/TDO*%
X137160000Y-74676000D03*
%TO.N,/comm/TCK*%
X137160000Y-73152000D03*
%TO.N,/comm/TDI*%
X137160000Y-71628000D03*
%TO.N,/comm/TMS*%
X137160000Y-68834000D03*
%TO.N,Net-(D1-Pad4)*%
X163830000Y-72694800D03*
X154813000Y-76555600D03*
%TD*%
D14*
%TO.N,GND*%
X141478000Y-79248000D02*
X141478000Y-80264000D01*
X141478000Y-80264000D02*
X135890000Y-85852000D01*
X135890000Y-85852000D02*
X135890000Y-87630000D01*
X135890000Y-87630000D02*
X134620000Y-88900000D01*
X134620000Y-88900000D02*
X134620000Y-88900000D01*
%TO.N,+3V3*%
X139192000Y-76708000D02*
X139192000Y-76708000D01*
X153951598Y-76708000D02*
X156491598Y-79248000D01*
X139192000Y-76708000D02*
X153951598Y-76708000D01*
X156491598Y-79248000D02*
X156491598Y-79248000D01*
%TO.N,/power/VBAT*%
X159815000Y-81231000D02*
X159815000Y-77421000D01*
X156956000Y-84090000D02*
X159815000Y-81231000D01*
X150114000Y-84090000D02*
X156956000Y-84090000D01*
%TO.N,/comm/PG*%
X146050000Y-87376000D02*
X146050000Y-87376000D01*
X138938000Y-87884000D02*
X137414000Y-86360000D01*
X145542000Y-87884000D02*
X138938000Y-87884000D01*
X146050000Y-87376000D02*
X145542000Y-87884000D01*
%TO.N,VBUS*%
X141986000Y-85344000D02*
X141986000Y-85344000D01*
X148844000Y-85344000D02*
X149352000Y-84836000D01*
X141986000Y-85344000D02*
X148844000Y-85344000D01*
%TO.N,/audio/BCLK*%
X133604000Y-79502000D02*
X134620000Y-78486000D01*
X134620000Y-78486000D02*
X147066000Y-78486000D01*
%TO.N,/audio/DATA*%
X153670000Y-80518000D02*
X153162000Y-80518000D01*
X153162000Y-80518000D02*
X153162000Y-80518000D01*
X134035001Y-77800999D02*
X147473199Y-77800999D01*
X133096000Y-78740000D02*
X134035001Y-77800999D01*
X150190200Y-80518000D02*
X153162000Y-80518000D01*
X147473199Y-77800999D02*
X150190200Y-80518000D01*
%TO.N,/comm/TDO*%
X165100000Y-68834000D02*
X159258000Y-74676000D01*
X159258000Y-74676000D02*
X137160000Y-74676000D01*
X137160000Y-74676000D02*
X137160000Y-74676000D01*
%TO.N,/comm/TCK*%
X162560000Y-68834000D02*
X158242000Y-73152000D01*
X158242000Y-73152000D02*
X137160000Y-73152000D01*
X137160000Y-73152000D02*
X137160000Y-73152000D01*
%TO.N,/comm/TDI*%
X160020000Y-68834000D02*
X157226000Y-71628000D01*
X157226000Y-71628000D02*
X137160000Y-71628000D01*
X137160000Y-71628000D02*
X137160000Y-71628000D01*
%TO.N,/comm/TMS*%
X157480000Y-68834000D02*
X137160000Y-68834000D01*
X137160000Y-68834000D02*
X137160000Y-68834000D01*
%TO.N,Net-(D1-Pad4)*%
X161438790Y-75086010D02*
X156282590Y-75086010D01*
X163830000Y-72694800D02*
X161438790Y-75086010D01*
X156282590Y-75086010D02*
X154813000Y-76555600D01*
X154813000Y-76555600D02*
X154813000Y-76555600D01*
%TD*%
D15*
%TO.N,GND*%
X170257001Y-90755000D02*
X155507084Y-90755000D01*
X155563934Y-90621865D01*
X155611000Y-90398000D01*
X155611000Y-89973000D01*
X154578000Y-89973000D01*
X154578000Y-89993000D01*
X154324000Y-89993000D01*
X154324000Y-89973000D01*
X153291000Y-89973000D01*
X153291000Y-90398000D01*
X153338066Y-90621865D01*
X153394916Y-90755000D01*
X148357084Y-90755000D01*
X148413934Y-90621865D01*
X148461000Y-90398000D01*
X148461000Y-89973000D01*
X147428000Y-89973000D01*
X147428000Y-89993000D01*
X147174000Y-89993000D01*
X147174000Y-89973000D01*
X146141000Y-89973000D01*
X146141000Y-90398000D01*
X146188066Y-90621865D01*
X146244916Y-90755000D01*
X122605000Y-90755000D01*
X122605000Y-89294000D01*
X146141000Y-89294000D01*
X146141000Y-89719000D01*
X147174000Y-89719000D01*
X147174000Y-88427837D01*
X147428000Y-88427837D01*
X147428000Y-89719000D01*
X148461000Y-89719000D01*
X148461000Y-89294000D01*
X153291000Y-89294000D01*
X153291000Y-89719000D01*
X154324000Y-89719000D01*
X154324000Y-88427837D01*
X154578000Y-88427837D01*
X154578000Y-89719000D01*
X155611000Y-89719000D01*
X155611000Y-89294000D01*
X155563934Y-89070135D01*
X155474099Y-88859754D01*
X155344947Y-88670941D01*
X155181441Y-88510953D01*
X154989864Y-88385937D01*
X154756810Y-88302036D01*
X154578000Y-88427837D01*
X154324000Y-88427837D01*
X154145190Y-88302036D01*
X153912136Y-88385937D01*
X153720559Y-88510953D01*
X153557053Y-88670941D01*
X153427901Y-88859754D01*
X153338066Y-89070135D01*
X153291000Y-89294000D01*
X148461000Y-89294000D01*
X148413934Y-89070135D01*
X148324099Y-88859754D01*
X148194947Y-88670941D01*
X148031441Y-88510953D01*
X147839864Y-88385937D01*
X147606810Y-88302036D01*
X147428000Y-88427837D01*
X147174000Y-88427837D01*
X146995190Y-88302036D01*
X146762136Y-88385937D01*
X146570559Y-88510953D01*
X146407053Y-88670941D01*
X146277901Y-88859754D01*
X146188066Y-89070135D01*
X146141000Y-89294000D01*
X122605000Y-89294000D01*
X122605000Y-82208000D01*
X131353928Y-82208000D01*
X131353928Y-83908000D01*
X131366188Y-84032482D01*
X131402498Y-84152180D01*
X131461463Y-84262494D01*
X131540815Y-84359185D01*
X131637506Y-84438537D01*
X131747820Y-84497502D01*
X131820380Y-84519513D01*
X131688525Y-84651368D01*
X131526010Y-84894589D01*
X131414068Y-85164842D01*
X131357000Y-85451740D01*
X131357000Y-85744260D01*
X131414068Y-86031158D01*
X131526010Y-86301411D01*
X131688525Y-86544632D01*
X131895368Y-86751475D01*
X132138589Y-86913990D01*
X132408842Y-87025932D01*
X132695740Y-87083000D01*
X132988260Y-87083000D01*
X133275158Y-87025932D01*
X133545411Y-86913990D01*
X133788632Y-86751475D01*
X133995475Y-86544632D01*
X134157990Y-86301411D01*
X134175946Y-86258061D01*
X136379000Y-86258061D01*
X136379000Y-86461939D01*
X136418774Y-86661898D01*
X136496795Y-86850256D01*
X136610063Y-87019774D01*
X136754226Y-87163937D01*
X136923744Y-87277205D01*
X137112102Y-87355226D01*
X137312061Y-87395000D01*
X137374198Y-87395000D01*
X138374205Y-88395008D01*
X138397999Y-88424001D01*
X138426992Y-88447795D01*
X138426996Y-88447799D01*
X138497685Y-88505811D01*
X138513724Y-88518974D01*
X138645753Y-88589546D01*
X138789014Y-88633003D01*
X138900667Y-88644000D01*
X138900676Y-88644000D01*
X138937999Y-88647676D01*
X138975322Y-88644000D01*
X145504678Y-88644000D01*
X145542000Y-88647676D01*
X145579322Y-88644000D01*
X145579333Y-88644000D01*
X145690986Y-88633003D01*
X145834247Y-88589546D01*
X145966276Y-88518974D01*
X146082001Y-88424001D01*
X146092671Y-88411000D01*
X146151939Y-88411000D01*
X146351898Y-88371226D01*
X146540256Y-88293205D01*
X146709774Y-88179937D01*
X146853937Y-88035774D01*
X146967205Y-87866256D01*
X147045226Y-87677898D01*
X147085000Y-87477939D01*
X147085000Y-87274061D01*
X147045226Y-87074102D01*
X146967205Y-86885744D01*
X146853937Y-86716226D01*
X146709774Y-86572063D01*
X146540256Y-86458795D01*
X146351898Y-86380774D01*
X146151939Y-86341000D01*
X145948061Y-86341000D01*
X145748102Y-86380774D01*
X145559744Y-86458795D01*
X145390226Y-86572063D01*
X145246063Y-86716226D01*
X145132795Y-86885744D01*
X145054774Y-87074102D01*
X145044849Y-87124000D01*
X139252803Y-87124000D01*
X138449000Y-86320198D01*
X138449000Y-86258061D01*
X138409226Y-86058102D01*
X138331205Y-85869744D01*
X138217937Y-85700226D01*
X138073774Y-85556063D01*
X137904256Y-85442795D01*
X137715898Y-85364774D01*
X137515939Y-85325000D01*
X137312061Y-85325000D01*
X137112102Y-85364774D01*
X136923744Y-85442795D01*
X136754226Y-85556063D01*
X136610063Y-85700226D01*
X136496795Y-85869744D01*
X136418774Y-86058102D01*
X136379000Y-86258061D01*
X134175946Y-86258061D01*
X134269932Y-86031158D01*
X134327000Y-85744260D01*
X134327000Y-85451740D01*
X134285292Y-85242061D01*
X140951000Y-85242061D01*
X140951000Y-85445939D01*
X140990774Y-85645898D01*
X141068795Y-85834256D01*
X141182063Y-86003774D01*
X141326226Y-86147937D01*
X141495744Y-86261205D01*
X141684102Y-86339226D01*
X141884061Y-86379000D01*
X142087939Y-86379000D01*
X142287898Y-86339226D01*
X142476256Y-86261205D01*
X142645774Y-86147937D01*
X142689711Y-86104000D01*
X148806678Y-86104000D01*
X148844000Y-86107676D01*
X148881322Y-86104000D01*
X148881333Y-86104000D01*
X148992986Y-86093003D01*
X149136247Y-86049546D01*
X149268276Y-85978974D01*
X149384001Y-85884001D01*
X149394671Y-85871000D01*
X149453939Y-85871000D01*
X149653898Y-85831226D01*
X149842256Y-85753205D01*
X150011774Y-85639937D01*
X150155937Y-85495774D01*
X150269205Y-85326256D01*
X150347226Y-85137898D01*
X150355306Y-85097278D01*
X150415898Y-85085226D01*
X150604256Y-85007205D01*
X150773774Y-84893937D01*
X150817711Y-84850000D01*
X156284289Y-84850000D01*
X156312226Y-84877937D01*
X156481744Y-84991205D01*
X156670102Y-85069226D01*
X156870061Y-85109000D01*
X157073939Y-85109000D01*
X157273898Y-85069226D01*
X157462256Y-84991205D01*
X157631774Y-84877937D01*
X157775937Y-84733774D01*
X157889205Y-84564256D01*
X157967226Y-84375898D01*
X158007000Y-84175939D01*
X158007000Y-84113801D01*
X160326004Y-81794798D01*
X160355001Y-81771001D01*
X160449974Y-81655276D01*
X160520546Y-81523247D01*
X160564003Y-81379986D01*
X160575000Y-81268333D01*
X160575000Y-81268332D01*
X160578677Y-81231000D01*
X160575000Y-81193667D01*
X160575000Y-78124711D01*
X160618937Y-78080774D01*
X160732205Y-77911256D01*
X160810226Y-77722898D01*
X160850000Y-77522939D01*
X160850000Y-77319061D01*
X160810226Y-77119102D01*
X160732205Y-76930744D01*
X160618937Y-76761226D01*
X160474774Y-76617063D01*
X160305256Y-76503795D01*
X160116898Y-76425774D01*
X159916939Y-76386000D01*
X159713061Y-76386000D01*
X159513102Y-76425774D01*
X159324744Y-76503795D01*
X159155226Y-76617063D01*
X159011063Y-76761226D01*
X158897795Y-76930744D01*
X158819774Y-77119102D01*
X158780000Y-77319061D01*
X158780000Y-77522939D01*
X158819774Y-77722898D01*
X158897795Y-77911256D01*
X159011063Y-78080774D01*
X159055001Y-78124712D01*
X159055000Y-80916198D01*
X156932199Y-83039000D01*
X156870061Y-83039000D01*
X156670102Y-83078774D01*
X156481744Y-83156795D01*
X156312226Y-83270063D01*
X156252289Y-83330000D01*
X150817711Y-83330000D01*
X150773774Y-83286063D01*
X150604256Y-83172795D01*
X150415898Y-83094774D01*
X150215939Y-83055000D01*
X150012061Y-83055000D01*
X149812102Y-83094774D01*
X149623744Y-83172795D01*
X149454226Y-83286063D01*
X149310063Y-83430226D01*
X149196795Y-83599744D01*
X149118774Y-83788102D01*
X149110694Y-83828722D01*
X149050102Y-83840774D01*
X148861744Y-83918795D01*
X148692226Y-84032063D01*
X148548063Y-84176226D01*
X148434795Y-84345744D01*
X148356774Y-84534102D01*
X148346849Y-84584000D01*
X142689711Y-84584000D01*
X142645774Y-84540063D01*
X142476256Y-84426795D01*
X142287898Y-84348774D01*
X142087939Y-84309000D01*
X141884061Y-84309000D01*
X141684102Y-84348774D01*
X141495744Y-84426795D01*
X141326226Y-84540063D01*
X141182063Y-84684226D01*
X141068795Y-84853744D01*
X140990774Y-85042102D01*
X140951000Y-85242061D01*
X134285292Y-85242061D01*
X134269932Y-85164842D01*
X134157990Y-84894589D01*
X133995475Y-84651368D01*
X133863620Y-84519513D01*
X133936180Y-84497502D01*
X134046494Y-84438537D01*
X134143185Y-84359185D01*
X134222537Y-84262494D01*
X134281502Y-84152180D01*
X134317812Y-84032482D01*
X134330072Y-83908000D01*
X134330072Y-82208000D01*
X134317812Y-82083518D01*
X134281502Y-81963820D01*
X134222537Y-81853506D01*
X134143185Y-81756815D01*
X134046494Y-81677463D01*
X133936180Y-81618498D01*
X133816482Y-81582188D01*
X133692000Y-81569928D01*
X131992000Y-81569928D01*
X131867518Y-81582188D01*
X131747820Y-81618498D01*
X131637506Y-81677463D01*
X131540815Y-81756815D01*
X131461463Y-81853506D01*
X131402498Y-81963820D01*
X131366188Y-82083518D01*
X131353928Y-82208000D01*
X122605000Y-82208000D01*
X122605000Y-77826890D01*
X127590524Y-77826890D01*
X127635175Y-77974099D01*
X127760359Y-78236920D01*
X127934412Y-78470269D01*
X128150645Y-78665178D01*
X128400748Y-78814157D01*
X128675109Y-78911481D01*
X128905000Y-78790814D01*
X128905000Y-77597000D01*
X129159000Y-77597000D01*
X129159000Y-78790814D01*
X129388891Y-78911481D01*
X129663252Y-78814157D01*
X129913355Y-78665178D01*
X129943438Y-78638061D01*
X132061000Y-78638061D01*
X132061000Y-78841939D01*
X132100774Y-79041898D01*
X132178795Y-79230256D01*
X132292063Y-79399774D01*
X132436226Y-79543937D01*
X132605744Y-79657205D01*
X132771012Y-79725662D01*
X132786574Y-79803898D01*
X132864595Y-79992256D01*
X132977863Y-80161774D01*
X133122026Y-80305937D01*
X133291544Y-80419205D01*
X133479902Y-80497226D01*
X133679861Y-80537000D01*
X133883739Y-80537000D01*
X134083698Y-80497226D01*
X134272056Y-80419205D01*
X134441574Y-80305937D01*
X134585737Y-80161774D01*
X134699005Y-79992256D01*
X134777026Y-79803898D01*
X134816800Y-79603939D01*
X134816800Y-79400061D01*
X134810817Y-79369984D01*
X134934802Y-79246000D01*
X146362289Y-79246000D01*
X146406226Y-79289937D01*
X146575744Y-79403205D01*
X146764102Y-79481226D01*
X146964061Y-79521000D01*
X147167939Y-79521000D01*
X147367898Y-79481226D01*
X147556256Y-79403205D01*
X147725774Y-79289937D01*
X147806555Y-79209156D01*
X149626401Y-81029003D01*
X149650199Y-81058001D01*
X149765924Y-81152974D01*
X149897953Y-81223546D01*
X150041214Y-81267003D01*
X150152867Y-81278000D01*
X150152875Y-81278000D01*
X150190200Y-81281676D01*
X150227525Y-81278000D01*
X152458289Y-81278000D01*
X152502226Y-81321937D01*
X152671744Y-81435205D01*
X152860102Y-81513226D01*
X153060061Y-81553000D01*
X153263939Y-81553000D01*
X153463898Y-81513226D01*
X153652256Y-81435205D01*
X153821774Y-81321937D01*
X153901842Y-81241869D01*
X153962247Y-81223546D01*
X154094276Y-81152974D01*
X154210001Y-81058001D01*
X154304974Y-80942276D01*
X154375546Y-80810247D01*
X154419003Y-80666986D01*
X154433677Y-80518000D01*
X154419003Y-80369014D01*
X154375546Y-80225753D01*
X154304974Y-80093724D01*
X154210001Y-79977999D01*
X154094276Y-79883026D01*
X153962247Y-79812454D01*
X153901842Y-79794131D01*
X153821774Y-79714063D01*
X153652256Y-79600795D01*
X153463898Y-79522774D01*
X153263939Y-79483000D01*
X153060061Y-79483000D01*
X152860102Y-79522774D01*
X152671744Y-79600795D01*
X152502226Y-79714063D01*
X152458289Y-79758000D01*
X150505002Y-79758000D01*
X148215001Y-77468000D01*
X153636797Y-77468000D01*
X155456598Y-79287803D01*
X155456598Y-79349939D01*
X155496372Y-79549898D01*
X155574393Y-79738256D01*
X155687661Y-79907774D01*
X155831824Y-80051937D01*
X156001342Y-80165205D01*
X156189700Y-80243226D01*
X156389659Y-80283000D01*
X156593537Y-80283000D01*
X156793496Y-80243226D01*
X156981854Y-80165205D01*
X157151372Y-80051937D01*
X157295535Y-79907774D01*
X157408803Y-79738256D01*
X157486824Y-79549898D01*
X157526598Y-79349939D01*
X157526598Y-79146061D01*
X157486824Y-78946102D01*
X157408803Y-78757744D01*
X157295535Y-78588226D01*
X157151372Y-78444063D01*
X156981854Y-78330795D01*
X156793496Y-78252774D01*
X156593537Y-78213000D01*
X156531401Y-78213000D01*
X155575355Y-77256956D01*
X155616937Y-77215374D01*
X155730205Y-77045856D01*
X155808226Y-76857498D01*
X155848000Y-76657539D01*
X155848000Y-76595401D01*
X156597392Y-75846010D01*
X161401468Y-75846010D01*
X161438790Y-75849686D01*
X161476112Y-75846010D01*
X161476123Y-75846010D01*
X161587776Y-75835013D01*
X161731037Y-75791556D01*
X161863066Y-75720984D01*
X161978791Y-75626011D01*
X162002594Y-75597007D01*
X163869802Y-73729800D01*
X163931939Y-73729800D01*
X164131898Y-73690026D01*
X164320256Y-73612005D01*
X164489774Y-73498737D01*
X164633937Y-73354574D01*
X164747205Y-73185056D01*
X164825226Y-72996698D01*
X164865000Y-72796739D01*
X164865000Y-72592861D01*
X164825226Y-72392902D01*
X164747205Y-72204544D01*
X164633937Y-72035026D01*
X164489774Y-71890863D01*
X164320256Y-71777595D01*
X164131898Y-71699574D01*
X163931939Y-71659800D01*
X163728061Y-71659800D01*
X163528102Y-71699574D01*
X163339744Y-71777595D01*
X163170226Y-71890863D01*
X163026063Y-72035026D01*
X162912795Y-72204544D01*
X162834774Y-72392902D01*
X162795000Y-72592861D01*
X162795000Y-72654998D01*
X161123989Y-74326010D01*
X160682791Y-74326010D01*
X164733592Y-70275210D01*
X164953740Y-70319000D01*
X165246260Y-70319000D01*
X165533158Y-70261932D01*
X165803411Y-70149990D01*
X166046632Y-69987475D01*
X166253475Y-69780632D01*
X166415990Y-69537411D01*
X166527932Y-69267158D01*
X166585000Y-68980260D01*
X166585000Y-68687740D01*
X166527932Y-68400842D01*
X166415990Y-68130589D01*
X166253475Y-67887368D01*
X166046632Y-67680525D01*
X165803411Y-67518010D01*
X165533158Y-67406068D01*
X165246260Y-67349000D01*
X164953740Y-67349000D01*
X164666842Y-67406068D01*
X164396589Y-67518010D01*
X164153368Y-67680525D01*
X163946525Y-67887368D01*
X163830000Y-68061760D01*
X163713475Y-67887368D01*
X163506632Y-67680525D01*
X163263411Y-67518010D01*
X162993158Y-67406068D01*
X162706260Y-67349000D01*
X162413740Y-67349000D01*
X162126842Y-67406068D01*
X161856589Y-67518010D01*
X161613368Y-67680525D01*
X161406525Y-67887368D01*
X161290000Y-68061760D01*
X161173475Y-67887368D01*
X160966632Y-67680525D01*
X160723411Y-67518010D01*
X160453158Y-67406068D01*
X160166260Y-67349000D01*
X159873740Y-67349000D01*
X159586842Y-67406068D01*
X159316589Y-67518010D01*
X159073368Y-67680525D01*
X158941513Y-67812380D01*
X158919502Y-67739820D01*
X158860537Y-67629506D01*
X158781185Y-67532815D01*
X158684494Y-67453463D01*
X158574180Y-67394498D01*
X158454482Y-67358188D01*
X158330000Y-67345928D01*
X156630000Y-67345928D01*
X156505518Y-67358188D01*
X156385820Y-67394498D01*
X156275506Y-67453463D01*
X156178815Y-67532815D01*
X156099463Y-67629506D01*
X156040498Y-67739820D01*
X156004188Y-67859518D01*
X155991928Y-67984000D01*
X155991928Y-68074000D01*
X137863711Y-68074000D01*
X137819774Y-68030063D01*
X137650256Y-67916795D01*
X137461898Y-67838774D01*
X137261939Y-67799000D01*
X137058061Y-67799000D01*
X136858102Y-67838774D01*
X136669744Y-67916795D01*
X136500226Y-68030063D01*
X136356063Y-68174226D01*
X136242795Y-68343744D01*
X136164774Y-68532102D01*
X136125000Y-68732061D01*
X136125000Y-68935939D01*
X136164774Y-69135898D01*
X136242795Y-69324256D01*
X136356063Y-69493774D01*
X136500226Y-69637937D01*
X136669744Y-69751205D01*
X136858102Y-69829226D01*
X137058061Y-69869000D01*
X137261939Y-69869000D01*
X137461898Y-69829226D01*
X137650256Y-69751205D01*
X137819774Y-69637937D01*
X137863711Y-69594000D01*
X155991928Y-69594000D01*
X155991928Y-69684000D01*
X156004188Y-69808482D01*
X156040498Y-69928180D01*
X156099463Y-70038494D01*
X156178815Y-70135185D01*
X156275506Y-70214537D01*
X156385820Y-70273502D01*
X156505518Y-70309812D01*
X156630000Y-70322072D01*
X157457127Y-70322072D01*
X156911199Y-70868000D01*
X137863711Y-70868000D01*
X137819774Y-70824063D01*
X137650256Y-70710795D01*
X137461898Y-70632774D01*
X137261939Y-70593000D01*
X137058061Y-70593000D01*
X136858102Y-70632774D01*
X136669744Y-70710795D01*
X136500226Y-70824063D01*
X136356063Y-70968226D01*
X136242795Y-71137744D01*
X136164774Y-71326102D01*
X136125000Y-71526061D01*
X136125000Y-71729939D01*
X136164774Y-71929898D01*
X136242795Y-72118256D01*
X136356063Y-72287774D01*
X136458289Y-72390000D01*
X136356063Y-72492226D01*
X136242795Y-72661744D01*
X136164774Y-72850102D01*
X136125000Y-73050061D01*
X136125000Y-73253939D01*
X136164774Y-73453898D01*
X136242795Y-73642256D01*
X136356063Y-73811774D01*
X136458289Y-73914000D01*
X136356063Y-74016226D01*
X136242795Y-74185744D01*
X136164774Y-74374102D01*
X136125000Y-74574061D01*
X136125000Y-74777939D01*
X136164774Y-74977898D01*
X136242795Y-75166256D01*
X136356063Y-75335774D01*
X136500226Y-75479937D01*
X136669744Y-75593205D01*
X136858102Y-75671226D01*
X137058061Y-75711000D01*
X137261939Y-75711000D01*
X137461898Y-75671226D01*
X137650256Y-75593205D01*
X137819774Y-75479937D01*
X137863711Y-75436000D01*
X154857799Y-75436000D01*
X154773199Y-75520600D01*
X154711061Y-75520600D01*
X154511102Y-75560374D01*
X154322744Y-75638395D01*
X154153226Y-75751663D01*
X154009063Y-75895826D01*
X153975110Y-75946640D01*
X153951598Y-75944324D01*
X153914276Y-75948000D01*
X139895711Y-75948000D01*
X139851774Y-75904063D01*
X139682256Y-75790795D01*
X139493898Y-75712774D01*
X139293939Y-75673000D01*
X139090061Y-75673000D01*
X138890102Y-75712774D01*
X138701744Y-75790795D01*
X138532226Y-75904063D01*
X138388063Y-76048226D01*
X138274795Y-76217744D01*
X138196774Y-76406102D01*
X138157000Y-76606061D01*
X138157000Y-76809939D01*
X138196774Y-77009898D01*
X138209657Y-77040999D01*
X134072324Y-77040999D01*
X134035001Y-77037323D01*
X133997678Y-77040999D01*
X133997668Y-77040999D01*
X133886015Y-77051996D01*
X133742754Y-77095453D01*
X133610724Y-77166025D01*
X133571451Y-77198256D01*
X133495000Y-77260998D01*
X133471202Y-77289996D01*
X133056198Y-77705000D01*
X132994061Y-77705000D01*
X132794102Y-77744774D01*
X132605744Y-77822795D01*
X132436226Y-77936063D01*
X132292063Y-78080226D01*
X132178795Y-78249744D01*
X132100774Y-78438102D01*
X132061000Y-78638061D01*
X129943438Y-78638061D01*
X130129588Y-78470269D01*
X130303641Y-78236920D01*
X130428825Y-77974099D01*
X130473476Y-77826890D01*
X130352155Y-77597000D01*
X129159000Y-77597000D01*
X128905000Y-77597000D01*
X127711845Y-77597000D01*
X127590524Y-77826890D01*
X122605000Y-77826890D01*
X122605000Y-74080000D01*
X127543928Y-74080000D01*
X127543928Y-75780000D01*
X127556188Y-75904482D01*
X127592498Y-76024180D01*
X127651463Y-76134494D01*
X127730815Y-76231185D01*
X127827506Y-76310537D01*
X127937820Y-76369502D01*
X128018466Y-76393966D01*
X127934412Y-76469731D01*
X127760359Y-76703080D01*
X127635175Y-76965901D01*
X127590524Y-77113110D01*
X127711845Y-77343000D01*
X128905000Y-77343000D01*
X128905000Y-77323000D01*
X129159000Y-77323000D01*
X129159000Y-77343000D01*
X130352155Y-77343000D01*
X130473476Y-77113110D01*
X130428825Y-76965901D01*
X130303641Y-76703080D01*
X130129588Y-76469731D01*
X130045534Y-76393966D01*
X130126180Y-76369502D01*
X130236494Y-76310537D01*
X130333185Y-76231185D01*
X130412537Y-76134494D01*
X130471502Y-76024180D01*
X130507812Y-75904482D01*
X130520072Y-75780000D01*
X130520072Y-74080000D01*
X130507812Y-73955518D01*
X130471502Y-73835820D01*
X130412537Y-73725506D01*
X130333185Y-73628815D01*
X130236494Y-73549463D01*
X130126180Y-73490498D01*
X130006482Y-73454188D01*
X129882000Y-73441928D01*
X128182000Y-73441928D01*
X128057518Y-73454188D01*
X127937820Y-73490498D01*
X127827506Y-73549463D01*
X127730815Y-73628815D01*
X127651463Y-73725506D01*
X127592498Y-73835820D01*
X127556188Y-73955518D01*
X127543928Y-74080000D01*
X122605000Y-74080000D01*
X122605000Y-71222890D01*
X127590524Y-71222890D01*
X127635175Y-71370099D01*
X127760359Y-71632920D01*
X127934412Y-71866269D01*
X128150645Y-72061178D01*
X128400748Y-72210157D01*
X128675109Y-72307481D01*
X128905000Y-72186814D01*
X128905000Y-70993000D01*
X129159000Y-70993000D01*
X129159000Y-72186814D01*
X129388891Y-72307481D01*
X129663252Y-72210157D01*
X129913355Y-72061178D01*
X130129588Y-71866269D01*
X130303641Y-71632920D01*
X130428825Y-71370099D01*
X130473476Y-71222890D01*
X130352155Y-70993000D01*
X129159000Y-70993000D01*
X128905000Y-70993000D01*
X127711845Y-70993000D01*
X127590524Y-71222890D01*
X122605000Y-71222890D01*
X122605000Y-67476000D01*
X127543928Y-67476000D01*
X127543928Y-69176000D01*
X127556188Y-69300482D01*
X127592498Y-69420180D01*
X127651463Y-69530494D01*
X127730815Y-69627185D01*
X127827506Y-69706537D01*
X127937820Y-69765502D01*
X128018466Y-69789966D01*
X127934412Y-69865731D01*
X127760359Y-70099080D01*
X127635175Y-70361901D01*
X127590524Y-70509110D01*
X127711845Y-70739000D01*
X128905000Y-70739000D01*
X128905000Y-70719000D01*
X129159000Y-70719000D01*
X129159000Y-70739000D01*
X130352155Y-70739000D01*
X130473476Y-70509110D01*
X130428825Y-70361901D01*
X130303641Y-70099080D01*
X130129588Y-69865731D01*
X130045534Y-69789966D01*
X130126180Y-69765502D01*
X130236494Y-69706537D01*
X130333185Y-69627185D01*
X130412537Y-69530494D01*
X130471502Y-69420180D01*
X130507812Y-69300482D01*
X130520072Y-69176000D01*
X130520072Y-67476000D01*
X130507812Y-67351518D01*
X130471502Y-67231820D01*
X130412537Y-67121506D01*
X130333185Y-67024815D01*
X130236494Y-66945463D01*
X130126180Y-66886498D01*
X130006482Y-66850188D01*
X129882000Y-66837928D01*
X128182000Y-66837928D01*
X128057518Y-66850188D01*
X127937820Y-66886498D01*
X127827506Y-66945463D01*
X127730815Y-67024815D01*
X127651463Y-67121506D01*
X127592498Y-67231820D01*
X127556188Y-67351518D01*
X127543928Y-67476000D01*
X122605000Y-67476000D01*
X122605000Y-65963000D01*
X170257000Y-65963000D01*
X170257001Y-90755000D01*
%TA.AperFunction,Conductor*%
D16*
G36*
X170257001Y-90755000D02*
G01*
X155507084Y-90755000D01*
X155563934Y-90621865D01*
X155611000Y-90398000D01*
X155611000Y-89973000D01*
X154578000Y-89973000D01*
X154578000Y-89993000D01*
X154324000Y-89993000D01*
X154324000Y-89973000D01*
X153291000Y-89973000D01*
X153291000Y-90398000D01*
X153338066Y-90621865D01*
X153394916Y-90755000D01*
X148357084Y-90755000D01*
X148413934Y-90621865D01*
X148461000Y-90398000D01*
X148461000Y-89973000D01*
X147428000Y-89973000D01*
X147428000Y-89993000D01*
X147174000Y-89993000D01*
X147174000Y-89973000D01*
X146141000Y-89973000D01*
X146141000Y-90398000D01*
X146188066Y-90621865D01*
X146244916Y-90755000D01*
X122605000Y-90755000D01*
X122605000Y-89294000D01*
X146141000Y-89294000D01*
X146141000Y-89719000D01*
X147174000Y-89719000D01*
X147174000Y-88427837D01*
X147428000Y-88427837D01*
X147428000Y-89719000D01*
X148461000Y-89719000D01*
X148461000Y-89294000D01*
X153291000Y-89294000D01*
X153291000Y-89719000D01*
X154324000Y-89719000D01*
X154324000Y-88427837D01*
X154578000Y-88427837D01*
X154578000Y-89719000D01*
X155611000Y-89719000D01*
X155611000Y-89294000D01*
X155563934Y-89070135D01*
X155474099Y-88859754D01*
X155344947Y-88670941D01*
X155181441Y-88510953D01*
X154989864Y-88385937D01*
X154756810Y-88302036D01*
X154578000Y-88427837D01*
X154324000Y-88427837D01*
X154145190Y-88302036D01*
X153912136Y-88385937D01*
X153720559Y-88510953D01*
X153557053Y-88670941D01*
X153427901Y-88859754D01*
X153338066Y-89070135D01*
X153291000Y-89294000D01*
X148461000Y-89294000D01*
X148413934Y-89070135D01*
X148324099Y-88859754D01*
X148194947Y-88670941D01*
X148031441Y-88510953D01*
X147839864Y-88385937D01*
X147606810Y-88302036D01*
X147428000Y-88427837D01*
X147174000Y-88427837D01*
X146995190Y-88302036D01*
X146762136Y-88385937D01*
X146570559Y-88510953D01*
X146407053Y-88670941D01*
X146277901Y-88859754D01*
X146188066Y-89070135D01*
X146141000Y-89294000D01*
X122605000Y-89294000D01*
X122605000Y-82208000D01*
X131353928Y-82208000D01*
X131353928Y-83908000D01*
X131366188Y-84032482D01*
X131402498Y-84152180D01*
X131461463Y-84262494D01*
X131540815Y-84359185D01*
X131637506Y-84438537D01*
X131747820Y-84497502D01*
X131820380Y-84519513D01*
X131688525Y-84651368D01*
X131526010Y-84894589D01*
X131414068Y-85164842D01*
X131357000Y-85451740D01*
X131357000Y-85744260D01*
X131414068Y-86031158D01*
X131526010Y-86301411D01*
X131688525Y-86544632D01*
X131895368Y-86751475D01*
X132138589Y-86913990D01*
X132408842Y-87025932D01*
X132695740Y-87083000D01*
X132988260Y-87083000D01*
X133275158Y-87025932D01*
X133545411Y-86913990D01*
X133788632Y-86751475D01*
X133995475Y-86544632D01*
X134157990Y-86301411D01*
X134175946Y-86258061D01*
X136379000Y-86258061D01*
X136379000Y-86461939D01*
X136418774Y-86661898D01*
X136496795Y-86850256D01*
X136610063Y-87019774D01*
X136754226Y-87163937D01*
X136923744Y-87277205D01*
X137112102Y-87355226D01*
X137312061Y-87395000D01*
X137374198Y-87395000D01*
X138374205Y-88395008D01*
X138397999Y-88424001D01*
X138426992Y-88447795D01*
X138426996Y-88447799D01*
X138497685Y-88505811D01*
X138513724Y-88518974D01*
X138645753Y-88589546D01*
X138789014Y-88633003D01*
X138900667Y-88644000D01*
X138900676Y-88644000D01*
X138937999Y-88647676D01*
X138975322Y-88644000D01*
X145504678Y-88644000D01*
X145542000Y-88647676D01*
X145579322Y-88644000D01*
X145579333Y-88644000D01*
X145690986Y-88633003D01*
X145834247Y-88589546D01*
X145966276Y-88518974D01*
X146082001Y-88424001D01*
X146092671Y-88411000D01*
X146151939Y-88411000D01*
X146351898Y-88371226D01*
X146540256Y-88293205D01*
X146709774Y-88179937D01*
X146853937Y-88035774D01*
X146967205Y-87866256D01*
X147045226Y-87677898D01*
X147085000Y-87477939D01*
X147085000Y-87274061D01*
X147045226Y-87074102D01*
X146967205Y-86885744D01*
X146853937Y-86716226D01*
X146709774Y-86572063D01*
X146540256Y-86458795D01*
X146351898Y-86380774D01*
X146151939Y-86341000D01*
X145948061Y-86341000D01*
X145748102Y-86380774D01*
X145559744Y-86458795D01*
X145390226Y-86572063D01*
X145246063Y-86716226D01*
X145132795Y-86885744D01*
X145054774Y-87074102D01*
X145044849Y-87124000D01*
X139252803Y-87124000D01*
X138449000Y-86320198D01*
X138449000Y-86258061D01*
X138409226Y-86058102D01*
X138331205Y-85869744D01*
X138217937Y-85700226D01*
X138073774Y-85556063D01*
X137904256Y-85442795D01*
X137715898Y-85364774D01*
X137515939Y-85325000D01*
X137312061Y-85325000D01*
X137112102Y-85364774D01*
X136923744Y-85442795D01*
X136754226Y-85556063D01*
X136610063Y-85700226D01*
X136496795Y-85869744D01*
X136418774Y-86058102D01*
X136379000Y-86258061D01*
X134175946Y-86258061D01*
X134269932Y-86031158D01*
X134327000Y-85744260D01*
X134327000Y-85451740D01*
X134285292Y-85242061D01*
X140951000Y-85242061D01*
X140951000Y-85445939D01*
X140990774Y-85645898D01*
X141068795Y-85834256D01*
X141182063Y-86003774D01*
X141326226Y-86147937D01*
X141495744Y-86261205D01*
X141684102Y-86339226D01*
X141884061Y-86379000D01*
X142087939Y-86379000D01*
X142287898Y-86339226D01*
X142476256Y-86261205D01*
X142645774Y-86147937D01*
X142689711Y-86104000D01*
X148806678Y-86104000D01*
X148844000Y-86107676D01*
X148881322Y-86104000D01*
X148881333Y-86104000D01*
X148992986Y-86093003D01*
X149136247Y-86049546D01*
X149268276Y-85978974D01*
X149384001Y-85884001D01*
X149394671Y-85871000D01*
X149453939Y-85871000D01*
X149653898Y-85831226D01*
X149842256Y-85753205D01*
X150011774Y-85639937D01*
X150155937Y-85495774D01*
X150269205Y-85326256D01*
X150347226Y-85137898D01*
X150355306Y-85097278D01*
X150415898Y-85085226D01*
X150604256Y-85007205D01*
X150773774Y-84893937D01*
X150817711Y-84850000D01*
X156284289Y-84850000D01*
X156312226Y-84877937D01*
X156481744Y-84991205D01*
X156670102Y-85069226D01*
X156870061Y-85109000D01*
X157073939Y-85109000D01*
X157273898Y-85069226D01*
X157462256Y-84991205D01*
X157631774Y-84877937D01*
X157775937Y-84733774D01*
X157889205Y-84564256D01*
X157967226Y-84375898D01*
X158007000Y-84175939D01*
X158007000Y-84113801D01*
X160326004Y-81794798D01*
X160355001Y-81771001D01*
X160449974Y-81655276D01*
X160520546Y-81523247D01*
X160564003Y-81379986D01*
X160575000Y-81268333D01*
X160575000Y-81268332D01*
X160578677Y-81231000D01*
X160575000Y-81193667D01*
X160575000Y-78124711D01*
X160618937Y-78080774D01*
X160732205Y-77911256D01*
X160810226Y-77722898D01*
X160850000Y-77522939D01*
X160850000Y-77319061D01*
X160810226Y-77119102D01*
X160732205Y-76930744D01*
X160618937Y-76761226D01*
X160474774Y-76617063D01*
X160305256Y-76503795D01*
X160116898Y-76425774D01*
X159916939Y-76386000D01*
X159713061Y-76386000D01*
X159513102Y-76425774D01*
X159324744Y-76503795D01*
X159155226Y-76617063D01*
X159011063Y-76761226D01*
X158897795Y-76930744D01*
X158819774Y-77119102D01*
X158780000Y-77319061D01*
X158780000Y-77522939D01*
X158819774Y-77722898D01*
X158897795Y-77911256D01*
X159011063Y-78080774D01*
X159055001Y-78124712D01*
X159055000Y-80916198D01*
X156932199Y-83039000D01*
X156870061Y-83039000D01*
X156670102Y-83078774D01*
X156481744Y-83156795D01*
X156312226Y-83270063D01*
X156252289Y-83330000D01*
X150817711Y-83330000D01*
X150773774Y-83286063D01*
X150604256Y-83172795D01*
X150415898Y-83094774D01*
X150215939Y-83055000D01*
X150012061Y-83055000D01*
X149812102Y-83094774D01*
X149623744Y-83172795D01*
X149454226Y-83286063D01*
X149310063Y-83430226D01*
X149196795Y-83599744D01*
X149118774Y-83788102D01*
X149110694Y-83828722D01*
X149050102Y-83840774D01*
X148861744Y-83918795D01*
X148692226Y-84032063D01*
X148548063Y-84176226D01*
X148434795Y-84345744D01*
X148356774Y-84534102D01*
X148346849Y-84584000D01*
X142689711Y-84584000D01*
X142645774Y-84540063D01*
X142476256Y-84426795D01*
X142287898Y-84348774D01*
X142087939Y-84309000D01*
X141884061Y-84309000D01*
X141684102Y-84348774D01*
X141495744Y-84426795D01*
X141326226Y-84540063D01*
X141182063Y-84684226D01*
X141068795Y-84853744D01*
X140990774Y-85042102D01*
X140951000Y-85242061D01*
X134285292Y-85242061D01*
X134269932Y-85164842D01*
X134157990Y-84894589D01*
X133995475Y-84651368D01*
X133863620Y-84519513D01*
X133936180Y-84497502D01*
X134046494Y-84438537D01*
X134143185Y-84359185D01*
X134222537Y-84262494D01*
X134281502Y-84152180D01*
X134317812Y-84032482D01*
X134330072Y-83908000D01*
X134330072Y-82208000D01*
X134317812Y-82083518D01*
X134281502Y-81963820D01*
X134222537Y-81853506D01*
X134143185Y-81756815D01*
X134046494Y-81677463D01*
X133936180Y-81618498D01*
X133816482Y-81582188D01*
X133692000Y-81569928D01*
X131992000Y-81569928D01*
X131867518Y-81582188D01*
X131747820Y-81618498D01*
X131637506Y-81677463D01*
X131540815Y-81756815D01*
X131461463Y-81853506D01*
X131402498Y-81963820D01*
X131366188Y-82083518D01*
X131353928Y-82208000D01*
X122605000Y-82208000D01*
X122605000Y-77826890D01*
X127590524Y-77826890D01*
X127635175Y-77974099D01*
X127760359Y-78236920D01*
X127934412Y-78470269D01*
X128150645Y-78665178D01*
X128400748Y-78814157D01*
X128675109Y-78911481D01*
X128905000Y-78790814D01*
X128905000Y-77597000D01*
X129159000Y-77597000D01*
X129159000Y-78790814D01*
X129388891Y-78911481D01*
X129663252Y-78814157D01*
X129913355Y-78665178D01*
X129943438Y-78638061D01*
X132061000Y-78638061D01*
X132061000Y-78841939D01*
X132100774Y-79041898D01*
X132178795Y-79230256D01*
X132292063Y-79399774D01*
X132436226Y-79543937D01*
X132605744Y-79657205D01*
X132771012Y-79725662D01*
X132786574Y-79803898D01*
X132864595Y-79992256D01*
X132977863Y-80161774D01*
X133122026Y-80305937D01*
X133291544Y-80419205D01*
X133479902Y-80497226D01*
X133679861Y-80537000D01*
X133883739Y-80537000D01*
X134083698Y-80497226D01*
X134272056Y-80419205D01*
X134441574Y-80305937D01*
X134585737Y-80161774D01*
X134699005Y-79992256D01*
X134777026Y-79803898D01*
X134816800Y-79603939D01*
X134816800Y-79400061D01*
X134810817Y-79369984D01*
X134934802Y-79246000D01*
X146362289Y-79246000D01*
X146406226Y-79289937D01*
X146575744Y-79403205D01*
X146764102Y-79481226D01*
X146964061Y-79521000D01*
X147167939Y-79521000D01*
X147367898Y-79481226D01*
X147556256Y-79403205D01*
X147725774Y-79289937D01*
X147806555Y-79209156D01*
X149626401Y-81029003D01*
X149650199Y-81058001D01*
X149765924Y-81152974D01*
X149897953Y-81223546D01*
X150041214Y-81267003D01*
X150152867Y-81278000D01*
X150152875Y-81278000D01*
X150190200Y-81281676D01*
X150227525Y-81278000D01*
X152458289Y-81278000D01*
X152502226Y-81321937D01*
X152671744Y-81435205D01*
X152860102Y-81513226D01*
X153060061Y-81553000D01*
X153263939Y-81553000D01*
X153463898Y-81513226D01*
X153652256Y-81435205D01*
X153821774Y-81321937D01*
X153901842Y-81241869D01*
X153962247Y-81223546D01*
X154094276Y-81152974D01*
X154210001Y-81058001D01*
X154304974Y-80942276D01*
X154375546Y-80810247D01*
X154419003Y-80666986D01*
X154433677Y-80518000D01*
X154419003Y-80369014D01*
X154375546Y-80225753D01*
X154304974Y-80093724D01*
X154210001Y-79977999D01*
X154094276Y-79883026D01*
X153962247Y-79812454D01*
X153901842Y-79794131D01*
X153821774Y-79714063D01*
X153652256Y-79600795D01*
X153463898Y-79522774D01*
X153263939Y-79483000D01*
X153060061Y-79483000D01*
X152860102Y-79522774D01*
X152671744Y-79600795D01*
X152502226Y-79714063D01*
X152458289Y-79758000D01*
X150505002Y-79758000D01*
X148215001Y-77468000D01*
X153636797Y-77468000D01*
X155456598Y-79287803D01*
X155456598Y-79349939D01*
X155496372Y-79549898D01*
X155574393Y-79738256D01*
X155687661Y-79907774D01*
X155831824Y-80051937D01*
X156001342Y-80165205D01*
X156189700Y-80243226D01*
X156389659Y-80283000D01*
X156593537Y-80283000D01*
X156793496Y-80243226D01*
X156981854Y-80165205D01*
X157151372Y-80051937D01*
X157295535Y-79907774D01*
X157408803Y-79738256D01*
X157486824Y-79549898D01*
X157526598Y-79349939D01*
X157526598Y-79146061D01*
X157486824Y-78946102D01*
X157408803Y-78757744D01*
X157295535Y-78588226D01*
X157151372Y-78444063D01*
X156981854Y-78330795D01*
X156793496Y-78252774D01*
X156593537Y-78213000D01*
X156531401Y-78213000D01*
X155575355Y-77256956D01*
X155616937Y-77215374D01*
X155730205Y-77045856D01*
X155808226Y-76857498D01*
X155848000Y-76657539D01*
X155848000Y-76595401D01*
X156597392Y-75846010D01*
X161401468Y-75846010D01*
X161438790Y-75849686D01*
X161476112Y-75846010D01*
X161476123Y-75846010D01*
X161587776Y-75835013D01*
X161731037Y-75791556D01*
X161863066Y-75720984D01*
X161978791Y-75626011D01*
X162002594Y-75597007D01*
X163869802Y-73729800D01*
X163931939Y-73729800D01*
X164131898Y-73690026D01*
X164320256Y-73612005D01*
X164489774Y-73498737D01*
X164633937Y-73354574D01*
X164747205Y-73185056D01*
X164825226Y-72996698D01*
X164865000Y-72796739D01*
X164865000Y-72592861D01*
X164825226Y-72392902D01*
X164747205Y-72204544D01*
X164633937Y-72035026D01*
X164489774Y-71890863D01*
X164320256Y-71777595D01*
X164131898Y-71699574D01*
X163931939Y-71659800D01*
X163728061Y-71659800D01*
X163528102Y-71699574D01*
X163339744Y-71777595D01*
X163170226Y-71890863D01*
X163026063Y-72035026D01*
X162912795Y-72204544D01*
X162834774Y-72392902D01*
X162795000Y-72592861D01*
X162795000Y-72654998D01*
X161123989Y-74326010D01*
X160682791Y-74326010D01*
X164733592Y-70275210D01*
X164953740Y-70319000D01*
X165246260Y-70319000D01*
X165533158Y-70261932D01*
X165803411Y-70149990D01*
X166046632Y-69987475D01*
X166253475Y-69780632D01*
X166415990Y-69537411D01*
X166527932Y-69267158D01*
X166585000Y-68980260D01*
X166585000Y-68687740D01*
X166527932Y-68400842D01*
X166415990Y-68130589D01*
X166253475Y-67887368D01*
X166046632Y-67680525D01*
X165803411Y-67518010D01*
X165533158Y-67406068D01*
X165246260Y-67349000D01*
X164953740Y-67349000D01*
X164666842Y-67406068D01*
X164396589Y-67518010D01*
X164153368Y-67680525D01*
X163946525Y-67887368D01*
X163830000Y-68061760D01*
X163713475Y-67887368D01*
X163506632Y-67680525D01*
X163263411Y-67518010D01*
X162993158Y-67406068D01*
X162706260Y-67349000D01*
X162413740Y-67349000D01*
X162126842Y-67406068D01*
X161856589Y-67518010D01*
X161613368Y-67680525D01*
X161406525Y-67887368D01*
X161290000Y-68061760D01*
X161173475Y-67887368D01*
X160966632Y-67680525D01*
X160723411Y-67518010D01*
X160453158Y-67406068D01*
X160166260Y-67349000D01*
X159873740Y-67349000D01*
X159586842Y-67406068D01*
X159316589Y-67518010D01*
X159073368Y-67680525D01*
X158941513Y-67812380D01*
X158919502Y-67739820D01*
X158860537Y-67629506D01*
X158781185Y-67532815D01*
X158684494Y-67453463D01*
X158574180Y-67394498D01*
X158454482Y-67358188D01*
X158330000Y-67345928D01*
X156630000Y-67345928D01*
X156505518Y-67358188D01*
X156385820Y-67394498D01*
X156275506Y-67453463D01*
X156178815Y-67532815D01*
X156099463Y-67629506D01*
X156040498Y-67739820D01*
X156004188Y-67859518D01*
X155991928Y-67984000D01*
X155991928Y-68074000D01*
X137863711Y-68074000D01*
X137819774Y-68030063D01*
X137650256Y-67916795D01*
X137461898Y-67838774D01*
X137261939Y-67799000D01*
X137058061Y-67799000D01*
X136858102Y-67838774D01*
X136669744Y-67916795D01*
X136500226Y-68030063D01*
X136356063Y-68174226D01*
X136242795Y-68343744D01*
X136164774Y-68532102D01*
X136125000Y-68732061D01*
X136125000Y-68935939D01*
X136164774Y-69135898D01*
X136242795Y-69324256D01*
X136356063Y-69493774D01*
X136500226Y-69637937D01*
X136669744Y-69751205D01*
X136858102Y-69829226D01*
X137058061Y-69869000D01*
X137261939Y-69869000D01*
X137461898Y-69829226D01*
X137650256Y-69751205D01*
X137819774Y-69637937D01*
X137863711Y-69594000D01*
X155991928Y-69594000D01*
X155991928Y-69684000D01*
X156004188Y-69808482D01*
X156040498Y-69928180D01*
X156099463Y-70038494D01*
X156178815Y-70135185D01*
X156275506Y-70214537D01*
X156385820Y-70273502D01*
X156505518Y-70309812D01*
X156630000Y-70322072D01*
X157457127Y-70322072D01*
X156911199Y-70868000D01*
X137863711Y-70868000D01*
X137819774Y-70824063D01*
X137650256Y-70710795D01*
X137461898Y-70632774D01*
X137261939Y-70593000D01*
X137058061Y-70593000D01*
X136858102Y-70632774D01*
X136669744Y-70710795D01*
X136500226Y-70824063D01*
X136356063Y-70968226D01*
X136242795Y-71137744D01*
X136164774Y-71326102D01*
X136125000Y-71526061D01*
X136125000Y-71729939D01*
X136164774Y-71929898D01*
X136242795Y-72118256D01*
X136356063Y-72287774D01*
X136458289Y-72390000D01*
X136356063Y-72492226D01*
X136242795Y-72661744D01*
X136164774Y-72850102D01*
X136125000Y-73050061D01*
X136125000Y-73253939D01*
X136164774Y-73453898D01*
X136242795Y-73642256D01*
X136356063Y-73811774D01*
X136458289Y-73914000D01*
X136356063Y-74016226D01*
X136242795Y-74185744D01*
X136164774Y-74374102D01*
X136125000Y-74574061D01*
X136125000Y-74777939D01*
X136164774Y-74977898D01*
X136242795Y-75166256D01*
X136356063Y-75335774D01*
X136500226Y-75479937D01*
X136669744Y-75593205D01*
X136858102Y-75671226D01*
X137058061Y-75711000D01*
X137261939Y-75711000D01*
X137461898Y-75671226D01*
X137650256Y-75593205D01*
X137819774Y-75479937D01*
X137863711Y-75436000D01*
X154857799Y-75436000D01*
X154773199Y-75520600D01*
X154711061Y-75520600D01*
X154511102Y-75560374D01*
X154322744Y-75638395D01*
X154153226Y-75751663D01*
X154009063Y-75895826D01*
X153975110Y-75946640D01*
X153951598Y-75944324D01*
X153914276Y-75948000D01*
X139895711Y-75948000D01*
X139851774Y-75904063D01*
X139682256Y-75790795D01*
X139493898Y-75712774D01*
X139293939Y-75673000D01*
X139090061Y-75673000D01*
X138890102Y-75712774D01*
X138701744Y-75790795D01*
X138532226Y-75904063D01*
X138388063Y-76048226D01*
X138274795Y-76217744D01*
X138196774Y-76406102D01*
X138157000Y-76606061D01*
X138157000Y-76809939D01*
X138196774Y-77009898D01*
X138209657Y-77040999D01*
X134072324Y-77040999D01*
X134035001Y-77037323D01*
X133997678Y-77040999D01*
X133997668Y-77040999D01*
X133886015Y-77051996D01*
X133742754Y-77095453D01*
X133610724Y-77166025D01*
X133571451Y-77198256D01*
X133495000Y-77260998D01*
X133471202Y-77289996D01*
X133056198Y-77705000D01*
X132994061Y-77705000D01*
X132794102Y-77744774D01*
X132605744Y-77822795D01*
X132436226Y-77936063D01*
X132292063Y-78080226D01*
X132178795Y-78249744D01*
X132100774Y-78438102D01*
X132061000Y-78638061D01*
X129943438Y-78638061D01*
X130129588Y-78470269D01*
X130303641Y-78236920D01*
X130428825Y-77974099D01*
X130473476Y-77826890D01*
X130352155Y-77597000D01*
X129159000Y-77597000D01*
X128905000Y-77597000D01*
X127711845Y-77597000D01*
X127590524Y-77826890D01*
X122605000Y-77826890D01*
X122605000Y-74080000D01*
X127543928Y-74080000D01*
X127543928Y-75780000D01*
X127556188Y-75904482D01*
X127592498Y-76024180D01*
X127651463Y-76134494D01*
X127730815Y-76231185D01*
X127827506Y-76310537D01*
X127937820Y-76369502D01*
X128018466Y-76393966D01*
X127934412Y-76469731D01*
X127760359Y-76703080D01*
X127635175Y-76965901D01*
X127590524Y-77113110D01*
X127711845Y-77343000D01*
X128905000Y-77343000D01*
X128905000Y-77323000D01*
X129159000Y-77323000D01*
X129159000Y-77343000D01*
X130352155Y-77343000D01*
X130473476Y-77113110D01*
X130428825Y-76965901D01*
X130303641Y-76703080D01*
X130129588Y-76469731D01*
X130045534Y-76393966D01*
X130126180Y-76369502D01*
X130236494Y-76310537D01*
X130333185Y-76231185D01*
X130412537Y-76134494D01*
X130471502Y-76024180D01*
X130507812Y-75904482D01*
X130520072Y-75780000D01*
X130520072Y-74080000D01*
X130507812Y-73955518D01*
X130471502Y-73835820D01*
X130412537Y-73725506D01*
X130333185Y-73628815D01*
X130236494Y-73549463D01*
X130126180Y-73490498D01*
X130006482Y-73454188D01*
X129882000Y-73441928D01*
X128182000Y-73441928D01*
X128057518Y-73454188D01*
X127937820Y-73490498D01*
X127827506Y-73549463D01*
X127730815Y-73628815D01*
X127651463Y-73725506D01*
X127592498Y-73835820D01*
X127556188Y-73955518D01*
X127543928Y-74080000D01*
X122605000Y-74080000D01*
X122605000Y-71222890D01*
X127590524Y-71222890D01*
X127635175Y-71370099D01*
X127760359Y-71632920D01*
X127934412Y-71866269D01*
X128150645Y-72061178D01*
X128400748Y-72210157D01*
X128675109Y-72307481D01*
X128905000Y-72186814D01*
X128905000Y-70993000D01*
X129159000Y-70993000D01*
X129159000Y-72186814D01*
X129388891Y-72307481D01*
X129663252Y-72210157D01*
X129913355Y-72061178D01*
X130129588Y-71866269D01*
X130303641Y-71632920D01*
X130428825Y-71370099D01*
X130473476Y-71222890D01*
X130352155Y-70993000D01*
X129159000Y-70993000D01*
X128905000Y-70993000D01*
X127711845Y-70993000D01*
X127590524Y-71222890D01*
X122605000Y-71222890D01*
X122605000Y-67476000D01*
X127543928Y-67476000D01*
X127543928Y-69176000D01*
X127556188Y-69300482D01*
X127592498Y-69420180D01*
X127651463Y-69530494D01*
X127730815Y-69627185D01*
X127827506Y-69706537D01*
X127937820Y-69765502D01*
X128018466Y-69789966D01*
X127934412Y-69865731D01*
X127760359Y-70099080D01*
X127635175Y-70361901D01*
X127590524Y-70509110D01*
X127711845Y-70739000D01*
X128905000Y-70739000D01*
X128905000Y-70719000D01*
X129159000Y-70719000D01*
X129159000Y-70739000D01*
X130352155Y-70739000D01*
X130473476Y-70509110D01*
X130428825Y-70361901D01*
X130303641Y-70099080D01*
X130129588Y-69865731D01*
X130045534Y-69789966D01*
X130126180Y-69765502D01*
X130236494Y-69706537D01*
X130333185Y-69627185D01*
X130412537Y-69530494D01*
X130471502Y-69420180D01*
X130507812Y-69300482D01*
X130520072Y-69176000D01*
X130520072Y-67476000D01*
X130507812Y-67351518D01*
X130471502Y-67231820D01*
X130412537Y-67121506D01*
X130333185Y-67024815D01*
X130236494Y-66945463D01*
X130126180Y-66886498D01*
X130006482Y-66850188D01*
X129882000Y-66837928D01*
X128182000Y-66837928D01*
X128057518Y-66850188D01*
X127937820Y-66886498D01*
X127827506Y-66945463D01*
X127730815Y-67024815D01*
X127651463Y-67121506D01*
X127592498Y-67231820D01*
X127556188Y-67351518D01*
X127543928Y-67476000D01*
X122605000Y-67476000D01*
X122605000Y-65963000D01*
X170257000Y-65963000D01*
X170257001Y-90755000D01*
G37*
%TD.AperFunction*%
%TD*%
M02*
